<svg xmlns="http://www.w3.org/2000/svg" viewBox="0 0 1200 420" width="1200" height="420">
  <defs>
    <linearGradient id="night" x1="0" y1="0" x2="0" y2="1">
      <stop offset="0" stop-color="#080e2a"/>
      <stop offset=".48" stop-color="#222f63"/>
      <stop offset=".8" stop-color="#6b4a7d"/>
      <stop offset="1" stop-color="#c07a7a"/>
    </linearGradient>
    <linearGradient id="river" x1="0" y1="0" x2="0" y2="1">
      <stop offset="0" stop-color="#2a2a55"/>
      <stop offset="1" stop-color="#0a1030"/>
    </linearGradient>
    <pattern id="win" width="20" height="26" patternUnits="userSpaceOnUse">
      <rect x="5" y="7" width="9" height="11" rx="1" fill="#ffd98a"/>
    </pattern>
  </defs>
  <rect width="1200" height="420" fill="url(#night)"/>
  <g fill="#ffffff">
    <circle cx="120" cy="44" r="2.2" opacity=".9"/><circle cx="262" cy="82" r="1.6" opacity=".7"/>
    <circle cx="386" cy="34" r="2" opacity=".8"/><circle cx="512" cy="96" r="1.4" opacity=".6"/>
    <circle cx="648" cy="50" r="2.4" opacity=".85"/><circle cx="786" cy="26" r="1.6" opacity=".7"/>
    <circle cx="906" cy="80" r="2" opacity=".75"/><circle cx="1032" cy="40" r="1.5" opacity=".65"/>
    <circle cx="1128" cy="102" r="2.2" opacity=".8"/><circle cx="176" cy="128" r="1.4" opacity=".5"/>
    <circle cx="704" cy="120" r="1.3" opacity=".5"/><circle cx="452" cy="150" r="1.5" opacity=".45"/>
  </g>
  <circle cx="948" cy="98" r="34" fill="#fdf3d0"/>
  <circle cx="936" cy="89" r="34" fill="#222f63" opacity=".94"/>
  <g fill="#141c46">
    <rect x="-10" y="238" width="128" height="112"/>
    <rect x="128" y="192" width="96" height="158"/>
    <rect x="234" y="256" width="118" height="94"/>
    <rect x="362" y="154" width="88" height="196"/>
    <rect x="460" y="222" width="126" height="128"/>
    <rect x="596" y="176" width="80" height="174"/>
    <rect x="686" y="244" width="136" height="106"/>
    <rect x="832" y="200" width="94" height="150"/>
    <rect x="936" y="260" width="112" height="90"/>
    <rect x="1058" y="212" width="94" height="138"/>
    <rect x="1162" y="248" width="58" height="102"/>
  </g>
  <g>
    <rect x="-10" y="238" width="128" height="112" fill="url(#win)" opacity=".5"/>
    <rect x="128" y="192" width="96" height="158" fill="url(#win)" opacity=".8"/>
    <rect x="234" y="256" width="118" height="94" fill="url(#win)" opacity=".42"/>
    <rect x="362" y="154" width="88" height="196" fill="url(#win)" opacity=".9"/>
    <rect x="460" y="222" width="126" height="128" fill="url(#win)" opacity=".5"/>
    <rect x="596" y="176" width="80" height="174" fill="url(#win)" opacity=".75"/>
    <rect x="686" y="244" width="136" height="106" fill="url(#win)" opacity=".58"/>
    <rect x="832" y="200" width="94" height="150" fill="url(#win)" opacity=".85"/>
    <rect x="936" y="260" width="112" height="90" fill="url(#win)" opacity=".46"/>
    <rect x="1058" y="212" width="94" height="138" fill="url(#win)" opacity=".7"/>
    <rect x="1162" y="248" width="58" height="102" fill="url(#win)" opacity=".5"/>
  </g>
  <g fill="#e94f4f">
    <circle cx="406" cy="148" r="3.4"/><circle cx="636" cy="170" r="3"/>
  </g>
  <rect y="350" width="1200" height="70" fill="url(#river)"/>
  <g fill="#ffd98a" opacity=".35">
    <rect x="148" y="358" width="44" height="4" rx="2"/>
    <rect x="386" y="370" width="48" height="4" rx="2"/>
    <rect x="620" y="362" width="32" height="4" rx="2"/>
    <rect x="858" y="376" width="50" height="4" rx="2"/>
    <rect x="156" y="390" width="30" height="3" rx="1.5"/>
    <rect x="392" y="398" width="36" height="3" rx="1.5"/>
    <rect x="1074" y="366" width="40" height="4" rx="2"/>
  </g>
</svg>
